<?xml version="1.0" standalone="no"?>
<!DOCTYPE svg PUBLIC "-//W3C//DTD SVG 20010904//EN"
 "http://www.w3.org/TR/2001/REC-SVG-20010904/DTD/svg10.dtd">
<svg version="1.0" xmlns="http://www.w3.org/2000/svg"
 width="700.000000pt" height="700.000000pt" viewBox="0 0 700.000000 700.000000"
 preserveAspectRatio="xMidYMid meet">
<g transform="translate(0.000000,700.000000) scale(0.100000,-0.100000)">
<style>
    path {
        fill: black;
        stroke: none;
    }
    @media (prefers-color-scheme: dark) {
      path {
        fill: white;
      }
    }
</style>
<path d="M2567 6954 c-1 -1 -101 -4 -222 -8 -121 -3 -231 -8 -245 -10 -14 -2
-63 -7 -110 -11 -46 -4 -87 -8 -90 -10 -3 -1 -38 -6 -79 -9 -41 -4 -77 -9 -81
-11 -4 -2 -29 -7 -56 -10 -74 -9 -280 -62 -359 -92 -238 -89 -380 -210 -434
-371 -21 -61 -28 -117 -13 -109 4 3 30 8 59 11 28 3 71 10 95 15 24 5 70 12
103 16 33 3 67 8 75 10 8 2 38 6 65 9 28 3 70 8 95 12 89 11 106 13 170 18
190 16 338 26 450 31 139 6 486 15 713 20 229 4 211 18 147 -119 -120 -259
-374 -856 -466 -1096 -14 -36 -31 -78 -39 -95 -43 -91 -473 -1220 -615 -1615
-105 -292 -217 -607 -252 -710 -22 -63 -43 -124 -48 -135 -34 -82 -167 -495
-205 -640 -76 -287 -91 -510 -45 -665 34 -116 142 -221 268 -263 81 -27 217
-46 270 -38 4 1 7 81 7 179 0 153 7 262 19 329 2 10 7 41 10 68 6 47 9 65 22
125 2 14 9 50 15 80 6 30 22 100 35 155 13 55 26 109 29 120 31 149 411 1513
505 1810 10 33 33 107 50 165 198 659 598 1814 788 2275 l29 70 429 1 c236 1
449 4 474 8 25 3 65 8 90 11 247 32 476 110 637 219 66 44 123 89 123 97 0 2
-30 4 -68 5 -72 1 -314 13 -372 19 -19 2 -73 7 -120 10 -47 4 -92 9 -101 10
-9 2 -52 6 -95 10 -43 4 -90 8 -104 10 -14 2 -52 6 -85 10 -33 3 -73 8 -90 10
-16 2 -70 7 -120 10 -49 4 -93 9 -96 10 -3 2 -45 7 -95 10 -49 4 -102 9 -119
11 -16 2 -77 6 -135 9 -58 4 -121 8 -140 10 -62 7 -667 24 -673 19z"/>
<path d="M4747 5864 c-1 -1 -51 -5 -112 -8 -147 -10 -229 -20 -400 -52 -262
-49 -602 -178 -783 -299 -30 -19 -57 -35 -62 -35 -5 0 -10 -3 -12 -7 -1 -5
-30 -28 -63 -53 -92 -69 -219 -203 -281 -296 -105 -157 -152 -301 -161 -490
-11 -241 58 -406 214 -510 57 -38 199 -94 240 -94 l22 0 -19 55 c-49 143 -74
318 -74 520 1 261 37 417 128 554 120 180 352 281 731 318 112 11 564 8 575
-3 6 -6 -1 -32 -19 -69 -37 -75 -88 -186 -153 -335 -27 -63 -58 -133 -68 -155
-9 -22 -43 -103 -75 -180 -31 -77 -63 -154 -71 -171 -50 -114 -411 -1058 -440
-1151 -2 -7 -16 -13 -31 -14 -262 -9 -512 -58 -656 -130 -148 -73 -248 -198
-264 -327 -3 -28 -3 -52 0 -52 3 0 65 9 139 20 73 11 187 27 253 35 115 15
152 19 248 30 23 2 68 7 100 11 31 3 57 4 57 1 0 -3 -50 -140 -111 -304 -103
-279 -133 -360 -244 -668 -119 -329 -263 -795 -291 -940 -2 -11 -6 -31 -9 -45
-42 -198 -48 -249 -49 -410 -1 -91 2 -187 6 -215 29 -213 167 -333 420 -363
l65 -8 0 35 c-1 42 11 230 18 275 3 17 14 94 25 171 12 77 23 156 26 175 2 19
7 42 9 50 2 8 7 31 10 50 3 19 8 42 10 50 2 8 7 31 10 50 12 70 66 301 122
520 53 207 87 327 303 1058 l164 552 70 1 c174 2 656 18 736 24 57 5 125 12
195 21 145 18 262 70 331 147 24 27 44 53 44 57 0 4 -30 8 -67 9 -38 1 -84 3
-103 5 -19 2 -75 6 -125 10 -49 4 -97 9 -105 11 -8 2 -46 7 -85 10 -38 4 -81
8 -95 10 -14 2 -52 7 -85 10 -33 3 -94 10 -135 15 -41 5 -106 12 -145 15 -38
3 -86 8 -105 10 -19 2 -75 7 -125 10 -49 4 -90 7 -91 8 -3 4 310 969 411 1267
85 251 201 576 254 710 l30 75 38 0 c33 -1 124 -9 203 -20 14 -1 50 -6 80 -10
30 -4 57 -8 60 -10 3 -1 36 -6 75 -10 38 -4 72 -8 75 -10 3 -2 32 -6 64 -10
33 -3 62 -8 65 -10 3 -1 36 -6 73 -9 37 -4 77 -9 90 -12 57 -13 305 -13 365 0
129 28 271 105 398 216 69 60 265 261 265 272 0 4 -11 3 -24 -2 -49 -18 -243
-51 -341 -57 -209 -13 -385 -6 -730 33 -77 8 -156 17 -175 19 -19 2 -64 6
-100 10 -36 3 -81 8 -100 10 -35 5 -67 8 -235 21 -81 6 -392 12 -398 8z"/>
</g>
</svg>
