<svg width="493.3" height="80.7" viewBox="0 0 493.3 80.7" xmlns="http://www.w3.org/2000/svg"><g id="svgGroup" stroke-linecap="round" fill-rule="evenodd" font-size="9pt" stroke="#000" stroke-width="0.25mm" fill="black" style="stroke:#000;stroke-width:0.25mm;fill:black"><path d="M 40.885 76.073 A 17.65 17.65 0 0 0 44.4 76.4 A 20.349 20.349 0 0 0 47.858 76.104 A 22.673 22.673 0 0 0 54.25 73.95 A 29.735 29.735 0 0 0 57.789 71.838 A 34.719 34.719 0 0 0 63.25 67.1 A 34.54 34.54 0 0 0 64.514 65.683 A 18.649 18.649 0 0 0 64.3 68.4 A 14.414 14.414 0 0 0 64.362 69.76 Q 64.479 70.999 64.821 72.014 A 6.384 6.384 0 0 0 66.45 74.65 Q 68.6 76.7 71.7 76.7 Q 74.013 76.7 76.266 75.567 A 14.686 14.686 0 0 0 78.95 73.8 A 30.925 30.925 0 0 0 81.484 71.458 Q 83.981 68.902 86.8 65.1 Q 86.7 65.9 86.6 66.65 Q 86.548 67.037 86.523 67.384 A 8.603 8.603 0 0 0 86.5 68 A 7.247 7.247 0 0 0 86.897 70.387 A 8.161 8.161 0 0 0 88.25 72.8 A 5.25 5.25 0 0 0 89.4 73.872 Q 90.348 74.52 91.626 74.796 A 9.836 9.836 0 0 0 93.7 75 A 12.358 12.358 0 0 0 97.913 74.231 A 17.14 17.14 0 0 0 101.05 72.7 Q 104.8 70.4 108.1 66.3 A 32.548 32.548 0 0 0 110.027 63.638 A 25.45 25.45 0 0 0 110 64.8 Q 110 71.2 113.2 74.4 A 10.63 10.63 0 0 0 116.988 76.873 A 11.828 11.828 0 0 0 121.2 77.6 A 18.049 18.049 0 0 0 125.772 77.007 A 21.555 21.555 0 0 0 130.9 74.9 A 29.113 29.113 0 0 0 134.668 72.368 A 34.743 34.743 0 0 0 139.7 67.45 A 37.247 37.247 0 0 0 143.594 61.835 A 35.477 35.477 0 0 0 143.4 65.4 A 25.855 25.855 0 0 0 143.579 68.495 Q 143.843 70.69 144.5 72.6 A 11.663 11.663 0 0 0 144.662 73.042 Q 145.194 74.407 145.895 75.097 A 2.236 2.236 0 0 0 147.5 75.8 Q 148.9 75.8 150.2 73.8 A 20.912 20.912 0 0 0 150.816 72.788 Q 151.32 71.906 151.825 70.851 A 44.193 44.193 0 0 0 152.8 68.65 Q 154.1 65.5 155.55 62 Q 157 58.5 158.65 55.35 Q 160.3 52.2 162.3 50.2 A 8.18 8.18 0 0 1 163.068 49.52 A 5.953 5.953 0 0 1 166.8 48.2 A 4.623 4.623 0 0 1 166.85 48.2 A 3.664 3.664 0 0 1 169.5 49.3 Q 170.308 50.108 170.522 51.725 A 9.726 9.726 0 0 1 170.6 53 A 16.807 16.807 0 0 1 170.451 55.197 A 21.219 21.219 0 0 1 169.85 58.1 Q 169.1 60.8 168.3 63.4 A 23.043 23.043 0 0 0 168.149 63.913 Q 167.838 65.014 167.676 66.021 A 13.124 13.124 0 0 0 167.5 68.1 Q 167.5 70.8 169.25 72.6 A 5.225 5.225 0 0 0 170.404 73.493 Q 171.29 74.001 172.436 74.224 A 10.271 10.271 0 0 0 174.4 74.4 A 12.951 12.951 0 0 0 177.755 73.96 A 14.763 14.763 0 0 0 181.9 72.1 A 23.002 23.002 0 0 0 185.143 69.581 A 28.838 28.838 0 0 0 188.5 65.85 A 38.605 38.605 0 0 0 189.004 65.17 A 15.13 15.13 0 0 0 189.023 65.631 A 11.624 11.624 0 0 0 192.05 73.05 A 9.065 9.065 0 0 0 194.076 74.712 Q 195.64 75.657 197.685 76.073 A 17.65 17.65 0 0 0 201.2 76.4 A 20.349 20.349 0 0 0 204.658 76.104 A 22.673 22.673 0 0 0 211.05 73.95 A 29.735 29.735 0 0 0 214.589 71.838 A 34.719 34.719 0 0 0 220.05 67.1 A 34.54 34.54 0 0 0 222.27 64.499 A 38.699 38.699 0 0 0 224.679 60.961 L 224.7 61 A 44.419 44.419 0 0 0 225.29 59.971 Q 226.739 57.368 228.8 53 Q 231.3 47.7 233.6 41.8 Q 235.5 43.1 237.35 44.65 Q 239.2 46.2 239.2 49.4 Q 239.2 51.025 238.673 52.904 A 20.755 20.755 0 0 1 237.85 55.25 Q 236.5 58.5 235.1 61.8 A 19.162 19.162 0 0 0 234.194 64.432 A 14.471 14.471 0 0 0 233.7 68.1 A 8.153 8.153 0 0 0 233.72 68.678 A 5.973 5.973 0 0 0 235.65 72.8 A 6.075 6.075 0 0 0 236.351 73.358 Q 237.421 74.086 238.834 74.387 A 10.386 10.386 0 0 0 241 74.6 A 14.161 14.161 0 0 0 245.107 73.99 A 16.861 16.861 0 0 0 249.35 72 A 28.946 28.946 0 0 0 251.388 70.563 A 32.321 32.321 0 0 0 256.7 65.35 A 43.092 43.092 0 0 0 258.715 62.676 A 35.465 35.465 0 0 0 261.9 57.1 L 260.6 56.1 A 15.348 15.348 0 0 1 260.272 56.845 Q 259.383 58.726 257.8 60.85 Q 255.9 63.4 253.5 65.7 A 30.495 30.495 0 0 1 251.985 67.059 A 25.453 25.453 0 0 1 248.55 69.5 A 11.989 11.989 0 0 1 246.425 70.499 A 8.545 8.545 0 0 1 243.6 71 A 4.5 4.5 0 0 1 243.178 70.981 A 3.579 3.579 0 0 1 241.5 70.4 A 1.557 1.557 0 0 1 241.347 70.284 Q 240.6 69.64 240.6 68 Q 240.6 66.622 241.138 64.942 A 18.056 18.056 0 0 1 241.85 63.1 Q 243.1 60.3 244.35 57.2 Q 245.59 54.124 245.6 51.147 A 14.386 14.386 0 0 0 245.6 51.1 A 13.119 13.119 0 0 0 245.6 51.021 Q 245.592 49.791 245.354 48.733 A 7.414 7.414 0 0 0 244.05 45.85 Q 242.5 43.8 240.5 42.35 A 548.033 548.033 0 0 1 239.946 41.948 Q 238.282 40.738 236.95 39.75 Q 235.4 38.6 235.4 37.2 A 0.412 0.412 0 0 1 235.401 37.173 Q 235.418 36.905 235.763 35.953 A 35.513 35.513 0 0 1 235.95 35.45 A 23.542 23.542 0 0 0 236.085 35.085 Q 236.396 34.224 236.474 33.764 A 1.615 1.615 0 0 0 236.5 33.5 A 4.206 4.206 0 0 0 236.495 33.306 Q 236.473 32.83 236.35 32.05 A 1.55 1.55 0 0 0 236.321 31.908 Q 236.167 31.305 235.563 31.152 A 1.888 1.888 0 0 0 235.1 31.1 A 0.926 0.926 0 0 0 234.811 31.152 Q 234.211 31.351 233.253 32.307 A 16.95 16.95 0 0 0 232.6 33 A 6.425 6.425 0 0 0 231.17 35.684 A 8.649 8.649 0 0 0 230.9 37.9 A 3.89 3.89 0 0 0 230.9 37.944 A 3.27 3.27 0 0 0 231.9 40.3 Q 229.7 46.7 227.45 51.7 Q 225.763 55.45 224.553 57.85 A 60.552 60.552 0 0 1 224.507 57.941 A 42.327 42.327 0 0 1 219.6 64.6 Q 216 68.6 211.8 71.05 Q 207.6 73.5 203.3 73.5 A 14.017 14.017 0 0 1 202.61 73.484 Q 201.752 73.441 201.009 73.291 A 7.298 7.298 0 0 1 199.45 72.8 A 7.101 7.101 0 0 1 198.892 72.518 A 5.787 5.787 0 0 1 197 70.85 Q 196.1 69.6 195.75 68.1 Q 195.4 66.6 195.4 65.1 A 13.732 13.732 0 0 1 195.414 64.486 A 16.544 16.544 0 0 1 195.5 63.4 A 19.875 19.875 0 0 1 195.589 62.711 A 23.767 23.767 0 0 1 195.8 61.5 A 30.478 30.478 0 0 0 197.549 61.286 A 33.683 33.683 0 0 0 204.45 59.45 Q 208.8 57.8 212.45 55.2 Q 216.1 52.6 218.35 49.25 A 15.179 15.179 0 0 0 218.522 48.988 A 12.531 12.531 0 0 0 220.6 42.1 A 14.038 14.038 0 0 0 220.6 42.071 Q 220.596 40.125 220.05 38.874 A 3.578 3.578 0 0 0 218.65 37.2 Q 216.7 36 214.4 36 A 15.115 15.115 0 0 0 209.418 36.87 A 20.295 20.295 0 0 0 205.5 38.75 A 31.684 31.684 0 0 0 202.761 40.63 A 36.04 36.04 0 0 0 197.25 45.9 A 43.151 43.151 0 0 0 197.221 45.934 A 39.353 39.353 0 0 0 191.25 55.3 A 27.753 27.753 0 0 0 189.712 59.579 A 20.368 20.368 0 0 0 189.357 61.122 A 42.367 42.367 0 0 1 187.5 63.75 A 44.523 44.523 0 0 1 187.035 64.346 Q 185.778 65.928 184.511 67.219 A 26.056 26.056 0 0 1 181.85 69.6 A 14.947 14.947 0 0 1 180.296 70.66 Q 179.44 71.163 178.64 71.444 A 5.853 5.853 0 0 1 176.7 71.8 A 3.681 3.681 0 0 1 176.599 71.799 A 2.813 2.813 0 0 1 174.55 70.9 A 2.244 2.244 0 0 1 174.517 70.865 Q 173.934 70.22 173.767 69.038 A 7.436 7.436 0 0 1 173.7 68 Q 173.7 65.5 174.8 62.8 A 140.069 140.069 0 0 0 174.869 62.631 A 152.389 152.389 0 0 0 176.95 57.2 Q 178 54.3 178 51.2 Q 178 49 177.25 46.95 Q 176.5 44.9 174.85 43.55 Q 173.78 42.675 172.227 42.367 A 9.404 9.404 0 0 0 170.4 42.2 Q 167.7 42.2 165.3 43.55 A 15.47 15.47 0 0 0 163.034 45.116 A 19.99 19.99 0 0 0 160.75 47.35 A 32.497 32.497 0 0 0 158.917 49.647 A 40.351 40.351 0 0 0 156.7 53.05 A 57.403 57.403 0 0 0 155.537 55.14 A 67.355 67.355 0 0 0 153.15 60.15 Q 151.5 64 150.1 68.1 A 16.896 16.896 0 0 1 150.032 67.561 A 20.408 20.408 0 0 1 149.95 66.6 A 21.261 21.261 0 0 1 149.929 66.209 Q 149.914 65.869 149.907 65.483 A 41.325 41.325 0 0 1 149.9 64.7 Q 149.9 62 150.3 58.55 A 56.757 56.757 0 0 1 150.407 57.685 A 62.247 62.247 0 0 1 151.55 51.5 Q 152.4 47.9 153.6 45 A 27.853 27.853 0 0 0 157.183 42.422 A 37.76 37.76 0 0 0 160.5 39.25 A 56.847 56.847 0 0 0 160.712 39.021 A 61.285 61.285 0 0 0 166.8 31.2 Q 169.7 26.8 171.9 22.25 A 72.98 72.98 0 0 0 173.754 18.105 A 55.096 55.096 0 0 0 175.35 13.7 A 36.141 36.141 0 0 0 175.94 11.602 Q 176.259 10.311 176.424 9.169 A 15.955 15.955 0 0 0 176.6 6.9 Q 176.6 4.9 175.85 2.75 A 5.718 5.718 0 0 0 175.759 2.506 Q 174.995 0.6 173.3 0.6 Q 171.616 0.6 169.462 2.593 A 19.478 19.478 0 0 0 168.1 4 A 39.72 39.72 0 0 0 166.531 5.9 Q 165.365 7.4 164.143 9.224 A 87.584 87.584 0 0 0 161.7 13.1 Q 158.3 18.8 155.05 25.8 Q 151.8 32.8 149.2 40.1 A 157.921 157.921 0 0 0 147.391 45.477 A 129.608 129.608 0 0 0 145 54 A 72.896 72.896 0 0 0 144.496 56.223 A 36.947 36.947 0 0 1 143.863 57.713 A 31.641 31.641 0 0 1 139.1 65.3 A 31.526 31.526 0 0 1 136.398 68.108 A 24.603 24.603 0 0 1 131.55 71.6 A 20.019 20.019 0 0 1 129.024 72.76 A 15.645 15.645 0 0 1 123.5 73.8 A 12.309 12.309 0 0 1 122.291 73.743 Q 118.978 73.416 117.7 71.2 Q 116.2 68.6 116.2 65.5 A 19.936 19.936 0 0 1 116.612 61.552 A 26.692 26.692 0 0 1 117.75 57.6 Q 119.3 53.4 121.75 49.6 A 32.383 32.383 0 0 1 124.052 46.444 A 24.106 24.106 0 0 1 127.05 43.4 A 14.383 14.383 0 0 1 127.939 42.707 Q 130.323 41 132.6 41 A 5.066 5.066 0 0 1 132.668 41.001 Q 133.353 41.01 133.794 41.206 A 1.299 1.299 0 0 1 134.35 41.65 A 2.145 2.145 0 0 1 134.606 42.162 Q 134.708 42.45 134.756 42.804 A 5.151 5.151 0 0 1 134.8 43.5 Q 134.8 45.7 133.7 48.15 A 11.146 11.146 0 0 1 133.036 49.42 Q 132.644 50.057 132.211 50.523 A 4.276 4.276 0 0 1 131.1 51.4 Q 132.3 52.9 134 52.9 A 3.87 3.87 0 0 0 136.662 51.907 A 5.329 5.329 0 0 0 137.65 50.7 A 8.822 8.822 0 0 0 138.63 48.444 A 10.548 10.548 0 0 0 139 45.6 A 8.812 8.812 0 0 0 138.743 43.481 A 9.902 9.902 0 0 0 137.5 40.6 A 4.488 4.488 0 0 0 135.787 39.011 Q 134.971 38.571 133.895 38.369 A 10.879 10.879 0 0 0 131.9 38.2 A 13.684 13.684 0 0 0 127.774 38.854 A 17.947 17.947 0 0 0 124.2 40.45 Q 120.3 42.7 117.1 46.5 Q 113.9 50.3 111.95 55.05 A 25.45 25.45 0 0 0 110.734 58.754 A 74.771 74.771 0 0 1 109.928 60.006 Q 108.38 62.348 106.845 64.217 A 31.332 31.332 0 0 1 103.6 67.65 Q 100.506 70.427 98.253 71.252 A 5.135 5.135 0 0 1 96.5 71.6 A 4.039 4.039 0 0 1 96.067 71.578 Q 95.386 71.504 94.87 71.191 A 2.722 2.722 0 0 1 93.9 70.15 A 7.159 7.159 0 0 1 93.628 69.605 A 5.859 5.859 0 0 1 93.1 67.2 A 7.254 7.254 0 0 1 93.101 67.073 Q 93.132 65.328 94 63.35 Q 94.9 61.3 96 59.3 Q 96.584 58.238 97.112 57.302 A 145.901 145.901 0 0 1 98 55.75 A 12.368 12.368 0 0 0 98.266 55.269 Q 98.676 54.485 98.821 53.892 A 2.51 2.51 0 0 0 98.9 53.3 A 1.48 1.48 0 0 0 98.627 52.417 A 1.808 1.808 0 0 0 98.2 52 A 5.186 5.186 0 0 0 97.533 51.598 A 6.466 6.466 0 0 0 96.55 51.2 A 22.651 22.651 0 0 0 96.464 51.173 Q 95.864 50.986 95.409 50.882 A 6.992 6.992 0 0 0 95 50.8 A 0.072 0.072 0 0 0 94.964 50.813 Q 94.866 50.873 94.629 51.212 A 9.739 9.739 0 0 0 94.5 51.4 Q 92.5 54.4 89.9 58 Q 87.3 61.6 84.45 64.95 A 56.926 56.926 0 0 1 84.049 65.417 Q 82.74 66.921 81.464 68.171 A 33.59 33.59 0 0 1 78.9 70.45 Q 76.2 72.6 73.9 72.6 A 3.589 3.589 0 0 1 73.754 72.597 Q 71.2 72.493 71.2 68.7 A 15.035 15.035 0 0 1 71.233 67.709 Q 71.319 66.415 71.623 64.974 A 28.274 28.274 0 0 1 72.4 62.1 A 38.5 38.5 0 0 1 73.284 59.661 A 45.316 45.316 0 0 1 75.7 54.6 Q 77.8 50.8 80.5 47.55 A 31.64 31.64 0 0 1 82.944 44.913 A 23.691 23.691 0 0 1 86.1 42.35 A 15.426 15.426 0 0 1 86.253 42.249 Q 87.399 41.498 88.529 41.052 A 8.865 8.865 0 0 1 91.8 40.4 Q 92.897 40.4 93.73 40.672 A 3.459 3.459 0 0 1 95.6 42.05 A 6.315 6.315 0 0 1 96.466 44.018 A 8.048 8.048 0 0 1 96.7 46 Q 96.7 46.8 96.55 47.75 A 23.066 23.066 0 0 1 96.409 48.553 A 18.324 18.324 0 0 1 96.2 49.5 A 9.891 9.891 0 0 0 96.82 49.481 Q 98.596 49.37 99.75 48.6 Q 100.752 47.932 101.01 46.383 A 7.213 7.213 0 0 0 101.1 45.2 A 8.351 8.351 0 0 0 101.069 44.472 A 6.51 6.51 0 0 0 98.5 39.75 A 9.203 9.203 0 0 0 95.046 38.062 A 12.227 12.227 0 0 0 92 37.7 A 15.733 15.733 0 0 0 88.333 38.14 A 19.076 19.076 0 0 0 84.15 39.7 A 29.188 29.188 0 0 0 81.72 41.082 A 33.55 33.55 0 0 0 76.65 45.05 Q 73.1 48.4 70.3 52.45 A 44.377 44.377 0 0 0 68.955 54.513 A 37.798 37.798 0 0 0 65.9 60.65 A 30.579 30.579 0 0 0 65.877 60.711 A 25.741 25.741 0 0 0 65.84 60.806 A 42.327 42.327 0 0 1 62.8 64.6 Q 59.2 68.6 55 71.05 Q 50.8 73.5 46.5 73.5 A 14.017 14.017 0 0 1 45.81 73.484 Q 44.952 73.441 44.209 73.291 A 7.298 7.298 0 0 1 42.65 72.8 A 7.101 7.101 0 0 1 42.092 72.518 A 5.787 5.787 0 0 1 40.2 70.85 Q 39.3 69.6 38.95 68.1 Q 38.6 66.6 38.6 65.1 A 13.732 13.732 0 0 1 38.614 64.486 A 16.544 16.544 0 0 1 38.7 63.4 A 19.875 19.875 0 0 1 38.789 62.711 A 23.767 23.767 0 0 1 39 61.5 A 30.478 30.478 0 0 0 40.749 61.286 A 33.683 33.683 0 0 0 47.65 59.45 Q 52 57.8 55.65 55.2 Q 59.3 52.6 61.55 49.25 A 15.179 15.179 0 0 0 61.722 48.988 A 12.531 12.531 0 0 0 63.8 42.1 A 14.038 14.038 0 0 0 63.8 42.071 Q 63.796 40.125 63.25 38.874 A 3.578 3.578 0 0 0 61.85 37.2 Q 59.9 36 57.6 36 A 15.115 15.115 0 0 0 52.618 36.87 A 20.295 20.295 0 0 0 48.7 38.75 A 31.684 31.684 0 0 0 45.961 40.63 A 36.04 36.04 0 0 0 40.45 45.9 A 43.151 43.151 0 0 0 40.421 45.934 A 39.353 39.353 0 0 0 34.45 55.3 A 27.753 27.753 0 0 0 32.912 59.579 A 20.368 20.368 0 0 0 32.2 64.8 Q 32.2 69.7 35.25 73.05 A 9.065 9.065 0 0 0 37.276 74.712 Q 38.84 75.657 40.885 76.073 Z M 305.2 72.15 A 5.932 5.932 0 0 0 306.01 73.006 Q 307.854 74.6 311 74.6 A 15.582 15.582 0 0 0 318.024 72.892 A 21.835 21.835 0 0 0 322.35 70 A 21.944 21.944 0 0 0 323.352 69.1 A 25.602 25.602 0 0 0 325.961 66.148 A 159.88 159.88 0 0 1 325.15 68.2 Q 324.297 70.313 324.137 71.039 A 1.302 1.302 0 0 0 324.1 71.3 A 4.401 4.401 0 0 0 325.098 72.288 A 5.431 5.431 0 0 0 326.35 72.95 Q 327.8 73.5 329.4 73.5 A 676.735 676.735 0 0 1 329.974 72.554 Q 330.854 71.109 331.84 69.503 A 1155.207 1155.207 0 0 1 334 66 Q 336.6 61.8 339.6 57.85 A 42.501 42.501 0 0 1 342.456 54.455 A 31.759 31.759 0 0 1 345.8 51.35 A 16.284 16.284 0 0 1 346.455 50.854 Q 347.623 50.016 348.778 49.52 A 8.365 8.365 0 0 1 352.1 48.8 A 5.228 5.228 0 0 1 352.465 48.813 A 3.986 3.986 0 0 1 354.95 49.85 Q 356.1 50.9 356.1 53.7 A 15.671 15.671 0 0 1 356.025 55.226 A 18.17 18.17 0 0 1 355.4 58.45 Q 354.7 60.9 353.95 63.2 Q 353.2 65.5 353.2 67.6 A 8.266 8.266 0 0 0 353.243 68.451 A 6.116 6.116 0 0 0 354.95 72.2 A 5.175 5.175 0 0 0 356.231 73.158 Q 357.806 74 360.2 74 Q 364 74 367.1 71.8 A 20.479 20.479 0 0 0 370.164 69.106 A 27.462 27.462 0 0 0 372.8 65.8 A 44.946 44.946 0 0 0 372.937 65.598 A 16.265 16.265 0 0 0 372.9 66.6 A 13.825 13.825 0 0 0 372.914 67.222 Q 373.026 69.708 374.05 71.4 A 8.468 8.468 0 0 0 374.683 72.31 A 6.565 6.565 0 0 0 376.95 74.15 A 9.263 9.263 0 0 0 378.039 74.598 A 7.361 7.361 0 0 0 380.4 75 A 8.474 8.474 0 0 0 381.947 74.855 Q 383.254 74.612 384.619 73.966 A 16.321 16.321 0 0 0 386.95 72.6 A 26.353 26.353 0 0 0 388.042 71.797 Q 390.968 69.53 394 65.95 A 66.067 66.067 0 0 0 396.211 63.191 A 77.331 77.331 0 0 0 400.8 56.4 Q 399.9 59.8 399.4 62.6 A 52.643 52.643 0 0 0 399.355 62.853 Q 399.049 64.618 398.949 65.93 A 15.445 15.445 0 0 0 398.9 67.1 A 9.21 9.21 0 0 0 399.149 69.227 A 10.455 10.455 0 0 0 400.35 72.15 A 4.574 4.574 0 0 0 401.582 73.523 Q 402.426 74.143 403.597 74.406 A 8.692 8.692 0 0 0 405.5 74.6 Q 407.625 74.6 409.887 73.682 A 17.904 17.904 0 0 0 412.65 72.25 A 25.676 25.676 0 0 0 416.122 69.624 A 33.02 33.02 0 0 0 419.7 65.85 A 32.116 32.116 0 0 0 420.401 64.954 A 15.13 15.13 0 0 0 420.423 65.631 A 11.624 11.624 0 0 0 423.45 73.05 A 9.065 9.065 0 0 0 425.476 74.712 Q 427.04 75.657 429.085 76.073 A 17.65 17.65 0 0 0 432.6 76.4 A 20.349 20.349 0 0 0 436.058 76.104 A 22.673 22.673 0 0 0 442.45 73.95 A 29.735 29.735 0 0 0 445.989 71.838 A 34.719 34.719 0 0 0 451.45 67.1 A 34.54 34.54 0 0 0 453.67 64.499 A 38.699 38.699 0 0 0 456.079 60.961 L 456.1 61 A 44.419 44.419 0 0 0 456.69 59.971 Q 458.139 57.368 460.2 53 Q 462.7 47.7 465 41.8 Q 466.9 43.1 468.75 44.65 Q 470.6 46.2 470.6 49.4 Q 470.6 51.025 470.073 52.904 A 20.755 20.755 0 0 1 469.25 55.25 Q 467.9 58.5 466.5 61.8 A 19.162 19.162 0 0 0 465.594 64.432 A 14.471 14.471 0 0 0 465.1 68.1 A 8.153 8.153 0 0 0 465.12 68.678 A 5.973 5.973 0 0 0 467.05 72.8 A 6.075 6.075 0 0 0 467.751 73.358 Q 468.821 74.086 470.234 74.387 A 10.386 10.386 0 0 0 472.4 74.6 A 14.161 14.161 0 0 0 476.507 73.99 A 16.861 16.861 0 0 0 480.75 72 A 28.946 28.946 0 0 0 482.788 70.563 A 32.321 32.321 0 0 0 488.1 65.35 A 43.092 43.092 0 0 0 490.115 62.676 A 35.465 35.465 0 0 0 493.3 57.1 L 492 56.1 A 15.348 15.348 0 0 1 491.672 56.845 Q 490.783 58.726 489.2 60.85 Q 487.3 63.4 484.9 65.7 A 30.495 30.495 0 0 1 483.385 67.059 A 25.453 25.453 0 0 1 479.95 69.5 A 11.989 11.989 0 0 1 477.825 70.499 A 8.545 8.545 0 0 1 475 71 A 4.5 4.5 0 0 1 474.578 70.981 A 3.579 3.579 0 0 1 472.9 70.4 A 1.557 1.557 0 0 1 472.747 70.284 Q 472 69.64 472 68 Q 472 66.622 472.538 64.942 A 18.056 18.056 0 0 1 473.25 63.1 Q 474.5 60.3 475.75 57.2 Q 476.99 54.124 477 51.147 A 14.386 14.386 0 0 0 477 51.1 A 13.119 13.119 0 0 0 477 51.021 Q 476.992 49.791 476.754 48.733 A 7.414 7.414 0 0 0 475.45 45.85 Q 473.9 43.8 471.9 42.35 A 548.033 548.033 0 0 1 471.346 41.948 Q 469.682 40.738 468.35 39.75 Q 466.8 38.6 466.8 37.2 A 0.412 0.412 0 0 1 466.801 37.173 Q 466.818 36.905 467.163 35.953 A 35.513 35.513 0 0 1 467.35 35.45 A 23.542 23.542 0 0 0 467.485 35.085 Q 467.796 34.224 467.874 33.764 A 1.615 1.615 0 0 0 467.9 33.5 A 4.206 4.206 0 0 0 467.895 33.306 Q 467.873 32.83 467.75 32.05 A 1.55 1.55 0 0 0 467.721 31.908 Q 467.567 31.305 466.963 31.152 A 1.888 1.888 0 0 0 466.5 31.1 A 0.926 0.926 0 0 0 466.211 31.152 Q 465.611 31.351 464.653 32.307 A 16.95 16.95 0 0 0 464 33 A 6.425 6.425 0 0 0 462.57 35.684 A 8.649 8.649 0 0 0 462.3 37.9 A 3.89 3.89 0 0 0 462.3 37.944 A 3.27 3.27 0 0 0 463.3 40.3 Q 461.1 46.7 458.85 51.7 Q 457.163 55.45 455.953 57.85 A 60.552 60.552 0 0 1 455.907 57.941 A 42.327 42.327 0 0 1 451 64.6 Q 447.4 68.6 443.2 71.05 Q 439 73.5 434.7 73.5 A 14.017 14.017 0 0 1 434.01 73.484 Q 433.152 73.441 432.409 73.291 A 7.298 7.298 0 0 1 430.85 72.8 A 7.101 7.101 0 0 1 430.292 72.518 A 5.787 5.787 0 0 1 428.4 70.85 Q 427.5 69.6 427.15 68.1 Q 426.8 66.6 426.8 65.1 A 13.732 13.732 0 0 1 426.814 64.486 A 16.544 16.544 0 0 1 426.9 63.4 A 19.875 19.875 0 0 1 426.989 62.711 A 23.767 23.767 0 0 1 427.2 61.5 A 30.478 30.478 0 0 0 428.949 61.286 A 33.683 33.683 0 0 0 435.85 59.45 Q 440.2 57.8 443.85 55.2 Q 447.5 52.6 449.75 49.25 A 15.179 15.179 0 0 0 449.922 48.988 A 12.531 12.531 0 0 0 452 42.1 A 14.038 14.038 0 0 0 452 42.071 Q 451.996 40.125 451.45 38.874 A 3.578 3.578 0 0 0 450.05 37.2 Q 448.1 36 445.8 36 A 15.115 15.115 0 0 0 440.818 36.87 A 20.295 20.295 0 0 0 436.9 38.75 A 31.684 31.684 0 0 0 434.161 40.63 A 36.04 36.04 0 0 0 428.65 45.9 A 43.151 43.151 0 0 0 428.621 45.934 A 39.353 39.353 0 0 0 422.65 55.3 A 27.753 27.753 0 0 0 421.112 59.579 A 20.368 20.368 0 0 0 420.76 61.107 A 30.908 30.908 0 0 1 418.8 63.7 A 37.102 37.102 0 0 1 418.242 64.343 Q 415.721 67.179 413.2 68.8 A 15.765 15.765 0 0 1 411.594 69.713 Q 409.775 70.6 408.3 70.6 Q 406.6 70.6 406.3 69.2 A 8.73 8.73 0 0 1 406.207 68.689 Q 406.07 67.788 406.024 66.464 A 41.959 41.959 0 0 1 406 65 A 30.986 30.986 0 0 1 406.008 64.292 Q 406.065 61.794 406.522 59.043 A 51.358 51.358 0 0 1 407.65 53.95 A 98.956 98.956 0 0 1 409.028 49.349 A 117.204 117.204 0 0 1 411.95 41.4 Q 414.6 34.9 417.5 28.6 Q 420.4 22.3 423.05 16.95 A 267.949 267.949 0 0 0 424.609 13.753 Q 426.216 10.397 427.35 7.75 A 51.833 51.833 0 0 0 427.581 7.204 Q 429 3.784 429 2.3 A 3.03 3.03 0 0 0 428.978 1.934 A 2.24 2.24 0 0 0 428.4 0.65 A 2.481 2.481 0 0 0 428.247 0.498 A 1.801 1.801 0 0 0 427 0 Q 425.775 0 424.286 1.495 A 13.346 13.346 0 0 0 423.35 2.55 A 26.687 26.687 0 0 0 422.185 4.121 Q 420.669 6.319 419.05 9.45 Q 416.8 13.8 414.4 19.35 A 329.715 329.715 0 0 0 413.801 20.745 A 362.956 362.956 0 0 0 409.65 30.9 Q 407.3 36.9 405.1 42.7 A 92.7 92.7 0 0 1 402.036 49.791 A 69.921 69.921 0 0 1 397.9 57.2 Q 395.463 60.978 393.081 63.717 A 32.998 32.998 0 0 1 390.05 66.8 Q 387.463 69.084 385.396 69.834 A 5.577 5.577 0 0 1 383.5 70.2 A 3.928 3.928 0 0 1 383.486 70.2 Q 381.896 70.194 380.9 68.9 Q 380.244 68.047 380.018 66.806 A 7.868 7.868 0 0 1 379.9 65.4 Q 379.9 63.891 380.352 61.929 A 29.379 29.379 0 0 1 380.95 59.75 A 36.774 36.774 0 0 1 382.031 56.771 A 45.934 45.934 0 0 1 383.9 52.8 Q 385.8 49.2 388.35 46.05 A 26.99 26.99 0 0 1 389.824 44.373 A 22.456 22.456 0 0 1 393.95 40.95 Q 397 39 400.2 39 A 10.238 10.238 0 0 1 400.703 39.012 Q 401.776 39.065 402.55 39.35 A 3.453 3.453 0 0 1 402.681 39.402 A 2.757 2.757 0 0 1 404 40.5 Q 404.1 40.1 404.15 39.8 A 2.995 2.995 0 0 0 404.163 39.713 Q 404.181 39.58 404.191 39.43 A 5.414 5.414 0 0 0 404.2 39.1 A 3.84 3.84 0 0 0 404.158 38.519 A 2.452 2.452 0 0 0 403.05 36.75 Q 401.9 36 399.8 36 A 14.115 14.115 0 0 0 395.958 36.545 A 17.989 17.989 0 0 0 392.3 38.05 A 28.885 28.885 0 0 0 389.262 39.947 A 35.024 35.024 0 0 0 385 43.55 Q 381.5 47 378.8 51.05 A 48.097 48.097 0 0 0 377.5 53.11 A 41.09 41.09 0 0 0 374.5 59.2 A 30.352 30.352 0 0 0 374.266 59.819 A 66.887 66.887 0 0 1 372.25 63.1 A 45.221 45.221 0 0 1 372.103 63.324 Q 369.822 66.774 367.4 69.05 A 12.367 12.367 0 0 1 366.643 69.708 Q 365.811 70.372 364.978 70.775 A 5.866 5.866 0 0 1 362.4 71.4 A 3.82 3.82 0 0 1 362.197 71.395 A 2.871 2.871 0 0 1 360.25 70.55 A 2.069 2.069 0 0 1 360.03 70.289 Q 359.4 69.408 359.4 67.6 A 11.87 11.87 0 0 1 359.443 66.587 A 12.703 12.703 0 0 1 360.45 62.65 A 115.236 115.236 0 0 0 360.712 62.034 A 126.279 126.279 0 0 0 362.5 57.55 A 14.919 14.919 0 0 0 363.027 55.85 A 16.878 16.878 0 0 0 363.5 51.8 Q 363.5 48.4 361.75 45.6 A 5.632 5.632 0 0 0 358.328 43.074 A 8.504 8.504 0 0 0 356.1 42.8 A 11.532 11.532 0 0 0 351.58 43.755 A 16.272 16.272 0 0 0 348.5 45.5 A 33.722 33.722 0 0 0 345.713 47.715 A 40.271 40.271 0 0 0 341.35 52.25 A 102.333 102.333 0 0 0 340.523 53.263 A 92.214 92.214 0 0 0 335.3 60.4 A 97.759 97.759 0 0 0 336.28 57.374 A 82.123 82.123 0 0 0 337.6 52.55 A 78.551 78.551 0 0 0 337.63 52.426 Q 338.5 48.773 338.5 47.2 A 4.109 4.109 0 0 0 338.452 46.555 Q 338.22 45.093 336.852 44.724 A 4.051 4.051 0 0 0 335.8 44.6 A 5.515 5.515 0 0 0 335.322 44.621 A 5.691 5.691 0 0 0 333.1 45.3 A 13.096 13.096 0 0 0 333.087 45.307 Q 332.243 45.763 331.695 46.219 A 4.136 4.136 0 0 0 331.2 46.7 A 20.252 20.252 0 0 1 331.195 47.168 Q 331.156 48.816 330.852 50.634 A 33.742 33.742 0 0 1 330.1 54 A 96.787 96.787 0 0 1 329.285 56.802 A 87.673 87.673 0 0 1 328.839 57.647 Q 326.379 62.236 324.069 65.116 A 20.815 20.815 0 0 1 321.65 67.7 A 19.563 19.563 0 0 1 319.842 69.127 Q 318.621 69.972 317.447 70.455 A 7.976 7.976 0 0 1 314.4 71.1 A 8.857 8.857 0 0 1 313.418 71.048 Q 312.696 70.968 312.111 70.761 A 3.696 3.696 0 0 1 310.7 69.9 Q 309.781 68.981 309.566 66.656 A 16.948 16.948 0 0 1 309.5 65.1 Q 309.5 61.6 311.05 57.75 Q 312.6 53.9 314.7 50.4 A 527.778 527.778 0 0 0 315.28 49.432 Q 317.018 46.52 318.35 44.2 A 30.151 30.151 0 0 0 318.567 43.816 Q 319.9 41.413 319.9 40.3 Q 319.9 39.887 319.808 39.552 A 1.752 1.752 0 0 0 319.25 38.65 A 2.282 2.282 0 0 0 318.61 38.265 A 2.459 2.459 0 0 0 317.7 38.1 A 4.102 4.102 0 0 0 316.164 38.411 Q 314.901 38.918 313.6 40.25 A 17.836 17.836 0 0 0 313.16 40.717 Q 312.212 41.76 311.317 43.064 A 31.029 31.029 0 0 0 309.65 45.8 A 49.306 49.306 0 0 0 309.421 46.227 A 53.414 53.414 0 0 0 306.4 53.05 A 78.669 78.669 0 0 0 305.427 55.888 A 64.863 64.863 0 0 0 304.15 60.4 A 39.423 39.423 0 0 0 303.684 62.568 Q 303.3 64.655 303.3 66.2 A 11.798 11.798 0 0 0 303.381 67.604 A 9.016 9.016 0 0 0 305.2 72.15 Z M 268 78.2 A 3.154 3.154 0 0 0 268.761 79.137 Q 270.241 80.399 273.7 80.7 Q 273.8 75.1 275.35 68.4 Q 276.9 61.7 279.1 54 A 21.566 21.566 0 0 0 279.13 53.908 Q 279.423 53.016 279.869 51.413 A 158.671 158.671 0 0 0 280.2 50.2 A 135.143 135.143 0 0 1 280.753 48.208 A 161.992 161.992 0 0 1 281.8 44.7 Q 282.363 42.888 282.808 41.388 A 171.461 171.461 0 0 0 283.3 39.7 Q 288.9 39.6 292.25 39.45 A 98.343 98.343 0 0 0 292.884 39.42 Q 294.781 39.322 296.171 39.173 A 27.325 27.325 0 0 0 297.5 39 Q 299.4 38.7 300.45 38.05 Q 301.5 37.4 302.3 36.2 Q 298.7 36.1 294.25 35.5 A 114.609 114.609 0 0 0 291.415 35.154 A 135.138 135.138 0 0 0 284.8 34.6 Q 286.5 29.4 288.2 24.15 Q 289.9 18.9 291.5 14.25 A 271.798 271.798 0 0 1 292.471 11.476 Q 292.941 10.154 293.383 8.965 A 143.656 143.656 0 0 1 294.4 6.3 Q 296.736 6.503 298.827 6.771 A 79.179 79.179 0 0 1 302.65 7.35 Q 305.159 7.797 307.031 7.937 A 21.199 21.199 0 0 0 308.6 8 A 9.641 9.641 0 0 0 310.776 7.751 A 11.08 11.08 0 0 0 313.7 6.6 A 11.095 11.095 0 0 0 314.656 5.994 Q 316.877 4.431 319.9 1 A 30.558 30.558 0 0 1 319.788 1.031 A 28.048 28.048 0 0 1 316.35 1.75 A 23.71 23.71 0 0 1 314.692 1.925 A 30.72 30.72 0 0 1 312.5 2 Q 307.8 2 302.85 1.25 A 63.42 63.42 0 0 0 302.23 1.159 A 68.715 68.715 0 0 0 292.6 0.5 Q 285 0.5 278.75 2.75 A 30.125 30.125 0 0 0 273.769 5.044 A 21.78 21.78 0 0 0 268.8 8.95 Q 265.1 12.9 265.1 18.1 Q 265.1 21.2 266.7 23.25 A 5.934 5.934 0 0 0 267.545 24.128 Q 268.415 24.865 269.619 25.333 A 11.024 11.024 0 0 0 271.7 25.9 Q 271 23.9 270.7 22.05 Q 270.4 20.2 270.4 18 A 24.422 24.422 0 0 1 270.45 16.411 Q 270.655 13.271 271.7 11.1 Q 273 8.4 276.5 7.1 A 13.374 13.374 0 0 1 277.029 6.916 Q 280.469 5.8 286.4 5.8 Q 287.4 5.8 288.35 5.85 A 39.048 39.048 0 0 1 288.38 5.852 A 41.611 41.611 0 0 1 290.3 6 Q 287.4 12.1 284.45 19.45 Q 281.5 26.8 278.7 34.5 A 36.647 36.647 0 0 0 275.479 34.726 A 27.587 27.587 0 0 0 272.2 35.3 A 16.894 16.894 0 0 0 271.56 35.468 Q 270.444 35.784 269.515 36.221 A 9.219 9.219 0 0 0 267.55 37.45 A 5.141 5.141 0 0 0 265.993 39.644 A 6.747 6.747 0 0 0 265.6 41.5 A 319.678 319.678 0 0 1 266.262 41.397 Q 269.011 40.974 270.8 40.75 Q 272.3 40.563 273.434 40.431 A 159.253 159.253 0 0 1 274.15 40.35 Q 275.5 40.2 276.7 40.1 Q 274.4 46.3 272.15 52.5 Q 269.9 58.7 268.4 63.95 Q 266.9 69.2 266.9 72.8 A 17.9 17.9 0 0 0 266.937 73.977 Q 267.103 76.488 268 78.2 Z M 9.666 80.567 A 15.84 15.84 0 0 0 11.8 80.7 Q 11.7 80.2 11.7 79.6 L 11.7 78.5 A 34.102 34.102 0 0 1 11.723 77.256 A 38.013 38.013 0 0 1 12.35 71.7 Q 13 68.2 14.15 64 A 787.893 787.893 0 0 0 14.304 63.437 Q 14.846 61.451 15.442 59.227 A 1320.434 1320.434 0 0 0 16.7 54.5 Q 20.9 39.2 25.05 27 A 723.596 723.596 0 0 1 25.25 26.413 Q 29.277 14.607 32.4 6.8 L 34.8 6.8 Q 36 6.8 37.2 6.85 Q 38.4 6.9 39.5 6.9 A 57.798 57.798 0 0 0 41.919 6.85 A 50.184 50.184 0 0 0 48.8 6.1 Q 53.2 5.3 56.6 2.2 Q 51.8 2.1 47 1.6 Q 42.2 1.1 36.75 0.55 A 88.828 88.828 0 0 0 36.02 0.479 Q 30.842 0 24.4 0 Q 20.734 0 17.492 0.226 A 70.082 70.082 0 0 0 12.1 0.8 Q 8.809 1.288 6.336 2.184 A 16.659 16.659 0 0 0 3.5 3.5 A 9.096 9.096 0 0 0 2.657 4.064 A 6.42 6.42 0 0 0 0 8.8 Q 4.4 8 8.1 7.65 Q 10.008 7.47 12.168 7.329 A 195.295 195.295 0 0 1 16.45 7.1 Q 19.938 6.95 24.691 6.856 A 633.782 633.782 0 0 1 28 6.8 Q 25.3 12.5 22.45 19.5 Q 19.6 26.5 16.85 33.7 Q 14.1 40.9 11.7 47.5 Q 10.2 51.625 8.973 55.086 A 625.975 625.975 0 0 0 7.6 59 A 160.636 160.636 0 0 0 7.277 59.93 A 176.589 176.589 0 0 0 5.1 66.7 A 37.166 37.166 0 0 0 4.605 68.506 Q 4.259 69.914 4.083 71.167 A 17.513 17.513 0 0 0 3.9 73.6 A 9.733 9.733 0 0 0 4.05 75.344 A 7.017 7.017 0 0 0 5.6 78.7 Q 6.862 80.184 9.666 80.567 Z M 154.9 41.1 A 28.296 28.296 0 0 0 157.833 38.424 A 37.783 37.783 0 0 0 160.35 35.5 Q 163 32.1 165.3 28.25 A 103.637 103.637 0 0 0 168.469 22.559 A 91.068 91.068 0 0 0 169.4 20.7 A 69.821 69.821 0 0 0 170.822 17.597 Q 171.638 15.688 172.2 14 A 34.03 34.03 0 0 0 172.637 12.594 Q 173.2 10.625 173.2 9.5 A 3.935 3.935 0 0 0 173.195 9.298 Q 173.18 9.007 173.118 8.881 A 0.282 0.282 0 0 0 173.1 8.85 A 0.323 0.323 0 0 0 172.866 8.705 A 0.471 0.471 0 0 0 172.8 8.7 A 0.775 0.775 0 0 0 172.428 8.829 Q 171.692 9.262 170.19 11.146 A 40.963 40.963 0 0 0 169.95 11.45 A 50.487 50.487 0 0 0 168.395 13.559 Q 167.616 14.67 166.768 15.981 A 118.972 118.972 0 0 0 165 18.8 Q 162.2 23.4 159.5 29.2 Q 156.8 35 154.9 41.1 Z M 44.615 57.446 A 63.326 63.326 0 0 0 45.6 56.95 Q 49 55.2 52.15 52.8 A 25.888 25.888 0 0 0 55.773 49.477 A 22.105 22.105 0 0 0 57.35 47.5 A 11.479 11.479 0 0 0 58.903 44.477 A 9.744 9.744 0 0 0 59.4 41.4 A 4.876 4.876 0 0 0 59.361 40.761 Q 59.275 40.113 59 39.7 A 1.112 1.112 0 0 0 58.538 39.317 Q 58.154 39.134 57.539 39.106 A 5.098 5.098 0 0 0 57.3 39.1 A 7.193 7.193 0 0 0 54.905 39.534 Q 53.961 39.866 52.977 40.452 A 14.496 14.496 0 0 0 52.2 40.95 A 23.1 23.1 0 0 0 49.226 43.395 A 30.237 30.237 0 0 0 47 45.8 Q 44.5 48.8 42.5 52.4 A 34.613 34.613 0 0 0 40.223 57.35 A 30.043 30.043 0 0 0 39.5 59.6 Q 41.803 58.832 44.615 57.446 Z M 201.415 57.446 A 63.326 63.326 0 0 0 202.4 56.95 Q 205.8 55.2 208.95 52.8 A 25.888 25.888 0 0 0 212.573 49.477 A 22.105 22.105 0 0 0 214.15 47.5 A 11.479 11.479 0 0 0 215.703 44.477 A 9.744 9.744 0 0 0 216.2 41.4 A 4.876 4.876 0 0 0 216.161 40.761 Q 216.075 40.113 215.8 39.7 A 1.112 1.112 0 0 0 215.338 39.317 Q 214.954 39.134 214.339 39.106 A 5.098 5.098 0 0 0 214.1 39.1 A 7.193 7.193 0 0 0 211.705 39.534 Q 210.761 39.866 209.777 40.452 A 14.496 14.496 0 0 0 209 40.95 A 23.1 23.1 0 0 0 206.026 43.395 A 30.237 30.237 0 0 0 203.8 45.8 Q 201.3 48.8 199.3 52.4 A 34.613 34.613 0 0 0 197.023 57.35 A 30.043 30.043 0 0 0 196.3 59.6 Q 198.603 58.832 201.415 57.446 Z M 432.815 57.446 A 63.326 63.326 0 0 0 433.8 56.95 Q 437.2 55.2 440.35 52.8 A 25.888 25.888 0 0 0 443.973 49.477 A 22.105 22.105 0 0 0 445.55 47.5 A 11.479 11.479 0 0 0 447.103 44.477 A 9.744 9.744 0 0 0 447.6 41.4 A 4.876 4.876 0 0 0 447.561 40.761 Q 447.475 40.113 447.2 39.7 A 1.112 1.112 0 0 0 446.738 39.317 Q 446.354 39.134 445.739 39.106 A 5.098 5.098 0 0 0 445.5 39.1 A 7.193 7.193 0 0 0 443.105 39.534 Q 442.161 39.866 441.177 40.452 A 14.496 14.496 0 0 0 440.4 40.95 A 23.1 23.1 0 0 0 437.426 43.395 A 30.237 30.237 0 0 0 435.2 45.8 Q 432.7 48.8 430.7 52.4 A 34.613 34.613 0 0 0 428.423 57.35 A 30.043 30.043 0 0 0 427.7 59.6 Q 430.003 58.832 432.815 57.446 Z M 321.191 28.507 A 5.454 5.454 0 0 0 323 28.8 A 6.275 6.275 0 0 0 325.538 28.269 A 7.696 7.696 0 0 0 327.45 27.05 Q 328.443 26.202 328.955 25.32 A 3.784 3.784 0 0 0 329.5 23.4 A 5.35 5.35 0 0 0 329.462 22.741 Q 329.314 21.556 328.6 21 A 2.889 2.889 0 0 0 328.213 20.746 Q 327.398 20.3 326.2 20.3 Q 323.8 20.3 321.35 21.85 Q 320.355 22.48 319.764 23.2 A 3.549 3.549 0 0 0 318.9 25.5 A 4.027 4.027 0 0 0 318.94 26.082 A 2.614 2.614 0 0 0 320.15 28 A 4.951 4.951 0 0 0 321.191 28.507 Z" vector-effect="non-scaling-stroke"/></g></svg>